<?xml version="1.0" encoding="UTF-8" standalone="no"?>
<!DOCTYPE svg PUBLIC "-//W3C//DTD SVG 1.1//EN" "http://www.w3.org/Graphics/SVG/1.1/DTD/svg11.dtd">
<svg width="100%" height="100%" viewBox="0 0 800 600" version="1.1" xmlns="http://www.w3.org/2000/svg" xmlns:xlink="http://www.w3.org/1999/xlink" xml:space="preserve" xmlns:serif="http://www.serif.com/" style="fill-rule:evenodd;clip-rule:evenodd;stroke-linejoin:round;stroke-miterlimit:2;">
    <path d="M521.655,388.628C487.749,395.117 454.763,405.806 420.912,412.632C402.995,416.245 384.938,418.991 366.78,421.048C363.343,421.438 359.9,421.771 356.456,422.081C355.715,422.148 354.048,422.399 352.714,422.609C350.29,421.938 347.588,422.417 345.499,424.134C342.413,426.668 342.274,429.349 342.282,430.745C342.298,433.723 343.503,436.558 347.193,438.172C348.022,438.535 349.567,439.004 351.657,438.892C353.268,438.806 356.421,438.149 357.891,438.017C361.458,437.695 365.023,437.35 368.581,436.947C387.197,434.838 405.707,432.02 424.075,428.316C457.906,421.494 490.872,410.801 524.757,404.324C527.494,403.801 540.715,403.481 548.169,403.149C549.319,403.679 550.381,403.841 551.174,403.877C553.442,403.98 555.28,403.221 556.755,401.96C557.209,401.572 557.689,401.104 558.119,400.519C559.104,399.55 560.909,397.233 560.506,393.237C560.082,389.038 555.874,369.52 554.672,365.319L552.088,356.234C550.287,331.562 547.689,308.857 536.776,285.001C535.469,282.144 530.067,267.136 526.519,260.034C524.951,256.894 523.297,254.82 522.299,253.983C520.714,252.656 518.46,251.937 516.397,252.076C514.51,252.203 508.85,253.273 508.859,260.361C508.861,262.234 510.923,272.414 516.392,290.224C523.391,313.017 529.774,336.147 536.271,359.106C536.538,362.927 536.789,366.798 537.061,370.733C537.26,373.607 537.967,376.615 538.888,379.652C534.004,377.18 530.768,375.479 523.515,371.258C498.874,356.919 474.967,341.04 454.599,320.954C414.442,281.352 377.802,235.788 355.365,183.721C347.528,165.536 339.597,145.63 339.597,125.544C339.597,121.129 336.012,117.544 331.597,117.544C327.181,117.544 323.597,121.129 323.597,125.544C323.597,147.781 331.995,169.921 340.671,190.053C363.92,244.004 401.754,291.311 443.364,332.346C464.689,353.377 489.668,370.074 515.467,385.087C517.898,386.501 519.894,387.644 521.655,388.628ZM355.955,436.238L355.655,436.497C355.76,436.411 355.859,436.325 355.955,436.238ZM356.218,435.987L356.124,436.076L356.212,435.993L356.218,435.987Z"/>
</svg>
